<svg width="664" height="591" viewBox="0 0 664 591" fill="none" xmlns="http://www.w3.org/2000/svg">
<g filter="url(#filter0_iiii_495_9395)">
<path d="M393.799 470.572C353.837 479.953 343.253 427.522 304.552 427.887C253.917 428.366 198.052 482.012 151.476 472.861C104.203 463.572 80.2422 422.317 70.5081 381.9C59.98 338.187 63.7953 286.319 95.4656 240.303C126.763 194.827 182.698 160.724 238.06 138.45C287.117 118.713 334.412 129.351 384.186 124.143C432.305 119.109 487.52 92.3206 525.782 108.346C564.11 124.399 578.054 165.737 578.211 205.409C578.35 240.497 546.979 275.59 526.584 311.004C511 338.063 493.854 363.123 472.831 388.387C448.467 417.666 431.921 461.624 393.799 470.572Z" fill="#484C9A"/>
</g>
<defs>
<filter id="filter0_iiii_495_9395" x="0" y="0.319153" width="663.364" height="606.152" filterUnits="userSpaceOnUse" color-interpolation-filters="sRGB">
<feFlood flood-opacity="0" result="BackgroundImageFix"/>
<feBlend mode="normal" in="SourceGraphic" in2="BackgroundImageFix" result="shape"/>
<feColorMatrix in="SourceAlpha" type="matrix" values="0 0 0 0 0 0 0 0 0 0 0 0 0 0 0 0 0 0 127 0" result="hardAlpha"/>
<feOffset dy="16"/>
<feGaussianBlur stdDeviation="16"/>
<feComposite in2="hardAlpha" operator="arithmetic" k2="-1" k3="1"/>
<feColorMatrix type="matrix" values="0 0 0 0 0 0 0 0 0 0 0 0 0 0 0 0 0 0 0.16 0"/>
<feBlend mode="normal" in2="shape" result="effect1_innerShadow_495_9395"/>
<feColorMatrix in="SourceAlpha" type="matrix" values="0 0 0 0 0 0 0 0 0 0 0 0 0 0 0 0 0 0 127 0" result="hardAlpha"/>
<feOffset dy="8"/>
<feGaussianBlur stdDeviation="8"/>
<feComposite in2="hardAlpha" operator="arithmetic" k2="-1" k3="1"/>
<feColorMatrix type="matrix" values="0 0 0 0 0 0 0 0 0 0 0 0 0 0 0 0 0 0 0.12 0"/>
<feBlend mode="normal" in2="effect1_innerShadow_495_9395" result="effect2_innerShadow_495_9395"/>
<feColorMatrix in="SourceAlpha" type="matrix" values="0 0 0 0 0 0 0 0 0 0 0 0 0 0 0 0 0 0 127 0" result="hardAlpha"/>
<feOffset dy="4"/>
<feGaussianBlur stdDeviation="4"/>
<feComposite in2="hardAlpha" operator="arithmetic" k2="-1" k3="1"/>
<feColorMatrix type="matrix" values="0 0 0 0 0 0 0 0 0 0 0 0 0 0 0 0 0 0 0.12 0"/>
<feBlend mode="normal" in2="effect2_innerShadow_495_9395" result="effect3_innerShadow_495_9395"/>
<feColorMatrix in="SourceAlpha" type="matrix" values="0 0 0 0 0 0 0 0 0 0 0 0 0 0 0 0 0 0 127 0" result="hardAlpha"/>
<feOffset dy="2"/>
<feGaussianBlur stdDeviation="2"/>
<feComposite in2="hardAlpha" operator="arithmetic" k2="-1" k3="1"/>
<feColorMatrix type="matrix" values="0 0 0 0 0 0 0 0 0 0 0 0 0 0 0 0 0 0 0.12 0"/>
<feBlend mode="normal" in2="effect3_innerShadow_495_9395" result="effect4_innerShadow_495_9395"/>
</filter>
</defs>
</svg>
