<svg width="209" height="318" viewBox="0 0 209 318" fill="none" xmlns="http://www.w3.org/2000/svg">
<g clip-path="url(#clip0_495_7528)" filter="url(#filter0_d_495_7528)">
<path fill-rule="evenodd" clip-rule="evenodd" d="M54 48.9198C54 43.5161 58.477 39.1358 64 39.1358C69.523 39.1358 74 43.5161 74 48.9198C74 54.3234 69.523 58.7037 64 58.7037C64 64.1074 59.523 68.4877 54 68.4877C48.477 68.4877 44 64.1074 44 58.7037C44 53.3 48.477 48.9198 54 48.9198ZM14 9.78395C14 4.38028 18.477 0 24 0C29.523 0 34 4.38028 34 9.78395C34 15.1876 29.523 19.5679 24 19.5679C24 24.9716 19.523 29.3519 14 29.3519C8.477 29.3519 4 24.9716 4 19.5679C4 14.1642 8.477 9.78395 14 9.78395ZM24 17.6111C28.418 17.6111 32 14.1065 32 9.78395C32 5.4614 28.418 1.95679 24 1.95679C19.582 1.95679 16 5.4614 16 9.78395C16 14.1065 19.582 17.6111 24 17.6111ZM64 56.7469C68.418 56.7469 72 53.2423 72 48.9198C72 44.5972 68.418 41.0926 64 41.0926C59.582 41.0926 56 44.5972 56 48.9198C56 53.2423 59.582 56.7469 64 56.7469Z" fill="black"/>
<path fill-rule="evenodd" clip-rule="evenodd" d="M136 48.9198C136 43.5161 140.477 39.1358 146 39.1358C151.523 39.1358 156 43.5161 156 48.9198C156 54.3234 151.523 58.7037 146 58.7037C146 64.1074 141.523 68.4877 136 68.4877C130.477 68.4877 126 64.1074 126 58.7037C126 53.3 130.477 48.9198 136 48.9198ZM96 9.78395C96 4.38028 100.477 0 106 0C111.523 0 116 4.38028 116 9.78395C116 15.1876 111.523 19.5679 106 19.5679C106 24.9716 101.523 29.3519 96 29.3519C90.477 29.3519 86 24.9716 86 19.5679C86 14.1642 90.477 9.78395 96 9.78395ZM106 17.6111C110.418 17.6111 114 14.1065 114 9.78395C114 5.4614 110.418 1.95679 106 1.95679C101.582 1.95679 98 5.4614 98 9.78395C98 14.1065 101.582 17.6111 106 17.6111ZM146 56.7469C150.418 56.7469 154 53.2423 154 48.9198C154 44.5972 150.418 41.0926 146 41.0926C141.582 41.0926 138 44.5972 138 48.9198C138 53.2423 141.582 56.7469 146 56.7469Z" fill="black"/>
<path fill-rule="evenodd" clip-rule="evenodd" d="M218 48.9198C218 43.5161 222.477 39.1358 228 39.1358C233.523 39.1358 238 43.5161 238 48.9198C238 54.3234 233.523 58.7037 228 58.7037C228 64.1074 223.523 68.4877 218 68.4877C212.477 68.4877 208 64.1074 208 58.7037C208 53.3 212.477 48.9198 218 48.9198ZM178 9.78395C178 4.38028 182.477 0 188 0C193.523 0 198 4.38028 198 9.78395C198 15.1876 193.523 19.5679 188 19.5679C188 24.9716 183.523 29.3519 178 29.3519C172.477 29.3519 168 24.9716 168 19.5679C168 14.1642 172.477 9.78395 178 9.78395ZM188 17.6111C192.418 17.6111 196 14.1065 196 9.78395C196 5.4614 192.418 1.95679 188 1.95679C183.582 1.95679 180 5.4614 180 9.78395C180 14.1065 183.582 17.6111 188 17.6111ZM228 56.7469C232.418 56.7469 236 53.2423 236 48.9198C236 44.5972 232.418 41.0926 228 41.0926C223.582 41.0926 220 44.5972 220 48.9198C220 53.2423 223.582 56.7469 228 56.7469Z" fill="black"/>
<path fill-rule="evenodd" clip-rule="evenodd" d="M54 129.148C54 123.744 58.477 119.364 64 119.364C69.523 119.364 74 123.744 74 129.148C74 134.552 69.523 138.932 64 138.932C64 144.336 59.523 148.716 54 148.716C48.477 148.716 44 144.336 44 138.932C44 133.528 48.477 129.148 54 129.148ZM14 90.0123C14 84.6087 18.477 80.2284 24 80.2284C29.523 80.2284 34 84.6087 34 90.0123C34 95.416 29.523 99.7963 24 99.7963C24 105.2 19.523 109.58 14 109.58C8.477 109.58 4 105.2 4 99.7963C4 94.3926 8.477 90.0123 14 90.0123ZM24 97.8395C28.418 97.8395 32 94.3349 32 90.0123C32 85.6898 28.418 82.1852 24 82.1852C19.582 82.1852 16 85.6898 16 90.0123C16 94.3349 19.582 97.8395 24 97.8395ZM64 136.975C68.418 136.975 72 133.471 72 129.148C72 124.826 68.418 121.321 64 121.321C59.582 121.321 56 124.826 56 129.148C56 133.471 59.582 136.975 64 136.975Z" fill="black"/>
<path fill-rule="evenodd" clip-rule="evenodd" d="M136 129.148C136 123.744 140.477 119.364 146 119.364C151.523 119.364 156 123.744 156 129.148C156 134.552 151.523 138.932 146 138.932C146 144.336 141.523 148.716 136 148.716C130.477 148.716 126 144.336 126 138.932C126 133.528 130.477 129.148 136 129.148ZM96 90.0123C96 84.6087 100.477 80.2284 106 80.2284C111.523 80.2284 116 84.6087 116 90.0123C116 95.416 111.523 99.7963 106 99.7963C106 105.2 101.523 109.58 96 109.58C90.477 109.58 86 105.2 86 99.7963C86 94.3926 90.477 90.0123 96 90.0123ZM106 97.8395C110.418 97.8395 114 94.3349 114 90.0123C114 85.6898 110.418 82.1852 106 82.1852C101.582 82.1852 98 85.6898 98 90.0123C98 94.3349 101.582 97.8395 106 97.8395ZM146 136.975C150.418 136.975 154 133.471 154 129.148C154 124.826 150.418 121.321 146 121.321C141.582 121.321 138 124.826 138 129.148C138 133.471 141.582 136.975 146 136.975Z" fill="black"/>
<path fill-rule="evenodd" clip-rule="evenodd" d="M218 129.148C218 123.744 222.477 119.364 228 119.364C233.523 119.364 238 123.744 238 129.148C238 134.552 233.523 138.932 228 138.932C228 144.336 223.523 148.716 218 148.716C212.477 148.716 208 144.336 208 138.932C208 133.528 212.477 129.148 218 129.148ZM178 90.0123C178 84.6087 182.477 80.2284 188 80.2284C193.523 80.2284 198 84.6087 198 90.0123C198 95.416 193.523 99.7963 188 99.7963C188 105.2 183.523 109.58 178 109.58C172.477 109.58 168 105.2 168 99.7963C168 94.3926 172.477 90.0123 178 90.0123ZM188 97.8395C192.418 97.8395 196 94.3349 196 90.0123C196 85.6898 192.418 82.1852 188 82.1852C183.582 82.1852 180 85.6898 180 90.0123C180 94.3349 183.582 97.8395 188 97.8395ZM228 136.975C232.418 136.975 236 133.471 236 129.148C236 124.826 232.418 121.321 228 121.321C223.582 121.321 220 124.826 220 129.148C220 133.471 223.582 136.975 228 136.975Z" fill="black"/>
<path fill-rule="evenodd" clip-rule="evenodd" d="M54 209.377C54 203.973 58.477 199.593 64 199.593C69.523 199.593 74 203.973 74 209.377C74 214.78 69.523 219.16 64 219.16C64 224.564 59.523 228.944 54 228.944C48.477 228.944 44 224.564 44 219.16C44 213.757 48.477 209.377 54 209.377ZM14 170.241C14 164.837 18.477 160.457 24 160.457C29.523 160.457 34 164.837 34 170.241C34 175.644 29.523 180.025 24 180.025C24 185.428 19.523 189.809 14 189.809C8.477 189.809 4 185.428 4 180.025C4 174.621 8.477 170.241 14 170.241ZM24 178.068C28.418 178.068 32 174.563 32 170.241C32 165.918 28.418 162.414 24 162.414C19.582 162.414 16 165.918 16 170.241C16 174.563 19.582 178.068 24 178.068ZM64 217.204C68.418 217.204 72 213.699 72 209.377C72 205.054 68.418 201.549 64 201.549C59.582 201.549 56 205.054 56 209.377C56 213.699 59.582 217.204 64 217.204Z" fill="black"/>
<path fill-rule="evenodd" clip-rule="evenodd" d="M136 209.377C136 203.973 140.477 199.593 146 199.593C151.523 199.593 156 203.973 156 209.377C156 214.78 151.523 219.16 146 219.16C146 224.564 141.523 228.944 136 228.944C130.477 228.944 126 224.564 126 219.16C126 213.757 130.477 209.377 136 209.377ZM96 170.241C96 164.837 100.477 160.457 106 160.457C111.523 160.457 116 164.837 116 170.241C116 175.644 111.523 180.025 106 180.025C106 185.428 101.523 189.809 96 189.809C90.477 189.809 86 185.428 86 180.025C86 174.621 90.477 170.241 96 170.241ZM106 178.068C110.418 178.068 114 174.563 114 170.241C114 165.918 110.418 162.414 106 162.414C101.582 162.414 98 165.918 98 170.241C98 174.563 101.582 178.068 106 178.068ZM146 217.204C150.418 217.204 154 213.699 154 209.377C154 205.054 150.418 201.549 146 201.549C141.582 201.549 138 205.054 138 209.377C138 213.699 141.582 217.204 146 217.204Z" fill="black"/>
<path fill-rule="evenodd" clip-rule="evenodd" d="M218 209.377C218 203.973 222.477 199.593 228 199.593C233.523 199.593 238 203.973 238 209.377C238 214.78 233.523 219.16 228 219.16C228 224.564 223.523 228.944 218 228.944C212.477 228.944 208 224.564 208 219.16C208 213.757 212.477 209.377 218 209.377ZM178 170.241C178 164.837 182.477 160.457 188 160.457C193.523 160.457 198 164.837 198 170.241C198 175.644 193.523 180.025 188 180.025C188 185.428 183.523 189.809 178 189.809C172.477 189.809 168 185.428 168 180.025C168 174.621 172.477 170.241 178 170.241ZM188 178.068C192.418 178.068 196 174.563 196 170.241C196 165.918 192.418 162.414 188 162.414C183.582 162.414 180 165.918 180 170.241C180 174.563 183.582 178.068 188 178.068ZM228 217.204C232.418 217.204 236 213.699 236 209.377C236 205.054 232.418 201.549 228 201.549C223.582 201.549 220 205.054 220 209.377C220 213.699 223.582 217.204 228 217.204Z" fill="black"/>
<path fill-rule="evenodd" clip-rule="evenodd" d="M54 289.605C54 284.201 58.477 279.821 64 279.821C69.523 279.821 74 284.201 74 289.605C74 295.009 69.523 299.389 64 299.389C64 304.793 59.523 309.173 54 309.173C48.477 309.173 44 304.793 44 299.389C44 293.985 48.477 289.605 54 289.605ZM14 250.469C14 245.065 18.477 240.685 24 240.685C29.523 240.685 34 245.065 34 250.469C34 255.873 29.523 260.253 24 260.253C24 265.657 19.523 270.037 14 270.037C8.477 270.037 4 265.657 4 260.253C4 254.849 8.477 250.469 14 250.469ZM24 258.296C28.418 258.296 32 254.792 32 250.469C32 246.147 28.418 242.642 24 242.642C19.582 242.642 16 246.147 16 250.469C16 254.792 19.582 258.296 24 258.296ZM64 297.432C68.418 297.432 72 293.927 72 289.605C72 285.282 68.418 281.778 64 281.778C59.582 281.778 56 285.282 56 289.605C56 293.927 59.582 297.432 64 297.432Z" fill="black"/>
<path fill-rule="evenodd" clip-rule="evenodd" d="M136 289.605C136 284.201 140.477 279.821 146 279.821C151.523 279.821 156 284.201 156 289.605C156 295.009 151.523 299.389 146 299.389C146 304.793 141.523 309.173 136 309.173C130.477 309.173 126 304.793 126 299.389C126 293.985 130.477 289.605 136 289.605ZM96 250.469C96 245.065 100.477 240.685 106 240.685C111.523 240.685 116 245.065 116 250.469C116 255.873 111.523 260.253 106 260.253C106 265.657 101.523 270.037 96 270.037C90.477 270.037 86 265.657 86 260.253C86 254.849 90.477 250.469 96 250.469ZM106 258.296C110.418 258.296 114 254.792 114 250.469C114 246.147 110.418 242.642 106 242.642C101.582 242.642 98 246.147 98 250.469C98 254.792 101.582 258.296 106 258.296ZM146 297.432C150.418 297.432 154 293.927 154 289.605C154 285.282 150.418 281.778 146 281.778C141.582 281.778 138 285.282 138 289.605C138 293.927 141.582 297.432 146 297.432Z" fill="black"/>
<path fill-rule="evenodd" clip-rule="evenodd" d="M218 289.605C218 284.201 222.477 279.821 228 279.821C233.523 279.821 238 284.201 238 289.605C238 295.009 233.523 299.389 228 299.389C228 304.793 223.523 309.173 218 309.173C212.477 309.173 208 304.793 208 299.389C208 293.985 212.477 289.605 218 289.605ZM178 250.469C178 245.065 182.477 240.685 188 240.685C193.523 240.685 198 245.065 198 250.469C198 255.873 193.523 260.253 188 260.253C188 265.657 183.523 270.037 178 270.037C172.477 270.037 168 265.657 168 260.253C168 254.849 172.477 250.469 178 250.469ZM188 258.296C192.418 258.296 196 254.792 196 250.469C196 246.147 192.418 242.642 188 242.642C183.582 242.642 180 246.147 180 250.469C180 254.792 183.582 258.296 188 258.296ZM228 297.432C232.418 297.432 236 293.927 236 289.605C236 285.282 232.418 281.778 228 281.778C223.582 281.778 220 285.282 220 289.605C220 293.927 223.582 297.432 228 297.432Z" fill="black"/>
</g>
<defs>
<filter id="filter0_d_495_7528" x="0" y="0" width="209" height="325" filterUnits="userSpaceOnUse" color-interpolation-filters="sRGB">
<feFlood flood-opacity="0" result="BackgroundImageFix"/>
<feColorMatrix in="SourceAlpha" type="matrix" values="0 0 0 0 0 0 0 0 0 0 0 0 0 0 0 0 0 0 127 0" result="hardAlpha"/>
<feOffset dy="4"/>
<feGaussianBlur stdDeviation="2"/>
<feComposite in2="hardAlpha" operator="out"/>
<feColorMatrix type="matrix" values="0 0 0 0 0 0 0 0 0 0 0 0 0 0 0 0 0 0 0.25 0"/>
<feBlend mode="normal" in2="BackgroundImageFix" result="effect1_dropShadow_495_7528"/>
<feBlend mode="normal" in="SourceGraphic" in2="effect1_dropShadow_495_7528" result="shape"/>
</filter>
<clipPath id="clip0_495_7528">
<rect width="201" height="317" fill="white" transform="translate(4)"/>
</clipPath>
</defs>
</svg>
