<svg width="76" height="76" viewBox="0 0 76 76" fill="none" xmlns="http://www.w3.org/2000/svg">
<path d="M56.3871 9.80645H30.6451V7.35484H31.8709C32.5491 7.35484 33.0967 6.80538 33.0967 6.12903V1.22581C33.0967 0.549458 32.5491 0 31.8709 0H14.7096C14.0315 0 13.4838 0.549458 13.4838 1.22581V6.12903C13.4838 6.80538 14.0315 7.35484 14.7096 7.35484H15.9355V10.6462C13.0415 12.0264 11.0322 14.973 11.0322 18.3871V67.4194C11.0322 72.1496 14.8826 76 19.6129 76H56.3871C61.1173 76 64.9677 72.1496 64.9677 67.4194V18.3871C64.9677 13.6557 61.1173 9.80645 56.3871 9.80645ZM62.5161 18.3871V37.4924L57.6129 32.5892V20.8387C57.6129 18.8115 55.9627 17.1613 53.9354 17.1613H42.1849L37.2817 12.2581H56.3871C59.7664 12.2581 62.5161 15.0077 62.5161 18.3871ZM55.1613 30.1376L44.6366 19.6129H53.9354C54.6118 19.6129 55.1613 20.1636 55.1613 20.8387V30.1376ZM15.9355 2.45161H30.6451V4.90323H15.9355V2.45161ZM18.3871 7.35484H28.1935V9.80645H19.6129C19.1963 9.80645 18.7893 9.84715 18.3871 9.90461V7.35484ZM56.3871 73.5484H19.6129C16.2335 73.5484 13.4838 70.7987 13.4838 67.4194V18.3871C13.4838 15.0077 16.2335 12.2581 19.6129 12.2581H33.815L62.5161 40.9592V67.4194C62.5161 70.7987 59.7664 73.5484 56.3871 73.5484Z" fill="white"/>
<path d="M32.7377 15.0686C32.5085 14.8382 32.1972 14.7095 31.871 14.7095H20.8388C18.1346 14.7095 15.9355 16.9085 15.9355 19.6127V66.1933C15.9355 68.8975 18.1346 71.0966 20.8388 71.0966H55.1614C57.8656 71.0966 60.0646 68.8975 60.0646 66.1933V42.903C60.0646 42.5768 59.9359 42.2656 59.7055 42.0363L32.7377 15.0686ZM57.613 66.1933C57.613 67.5454 56.5135 68.645 55.1614 68.645H20.8388C19.4867 68.645 18.3872 67.5454 18.3872 66.1933V19.6127C18.3872 18.2606 19.4867 17.1611 20.8388 17.1611H31.3635L57.613 43.4106V66.1933Z" fill="white"/>
<path d="M28.1936 54.8526C28.1936 59.3781 31.4371 63.1747 35.737 63.681C36.077 63.7199 36.4175 63.7409 36.7545 63.7409C38.8572 63.7409 40.8976 62.9772 42.4729 61.576C44.3057 59.948 45.3549 57.6107 45.3549 55.1614V54.8526C45.3549 52.4429 44.7456 50.0523 43.5922 47.9389L37.8504 37.413C37.4213 36.6247 36.1272 36.6247 35.6981 37.413L29.9563 47.9377C28.8029 50.0523 28.1936 52.4429 28.1936 54.8526ZM32.1086 49.112L36.7742 40.5607L41.4399 49.1144C42.3969 50.8675 42.9033 52.8523 42.9033 54.8526V55.1614C42.9033 56.9104 42.1533 58.5803 40.8437 59.7433C39.5185 60.9218 37.8037 61.4545 36.0243 61.2462C33.0088 60.8907 30.6452 58.0823 30.6452 54.8526C30.6452 52.8523 31.1516 50.8675 32.1086 49.112V49.112Z" fill="white"/>
<path d="M41.6774 55.1611H39.2258C39.2258 56.5132 38.1263 57.6127 36.7742 57.6127V60.0644C39.4784 60.0644 41.6774 57.8653 41.6774 55.1611Z" fill="white"/>
</svg>
