<svg width="76" height="76" viewBox="0 0 76 76" fill="none" xmlns="http://www.w3.org/2000/svg">
<g clip-path="url(#clip0_1031_51)">
<path d="M17.1672 56.3892H19.6186V58.8405H17.1672V56.3892Z" fill="white"/>
<path d="M71.0004 9.19026L48.7381 0.280677C46.574 -0.522485 44.3027 0.560167 43.5097 2.55431L41.9543 6.43366C41.7729 6.92142 41.6808 7.41397 41.6808 7.90053C41.6808 8.70848 41.9333 9.4919 42.3768 10.1538L38.7931 18.3925H37.2095L33.6282 10.1574C34.0741 9.49429 34.3266 8.70968 34.3266 7.90053C34.3266 7.41517 34.2345 6.92142 34.0424 6.40194L32.4995 2.5567C31.7035 0.556576 29.534 -0.566174 27.24 0.290252L5.00947 9.18906C3.46 9.8043 2.45874 11.2814 2.45874 12.9505C2.45874 13.4359 2.55091 13.9296 2.74302 14.4497L4.2865 18.2944C4.86822 19.7582 6.22019 20.72 7.77445 20.8241L18.975 46.5833H15.9413C13.9143 46.5833 12.2643 48.2334 12.2643 50.2604C12.2643 51.2545 12.6527 52.1785 13.3355 52.8441C13.5636 53.0787 13.8245 53.2624 14.0992 53.424C12.9914 54.5677 12.3014 56.1207 12.3014 57.8354C12.3014 58.3106 12.3516 58.763 12.4528 59.2155L16.1843 75.9999H54.9048L60.2253 53.825C65.0167 53.1702 68.6459 49.0838 68.6459 44.132C68.6459 39.9318 65.9653 36.2548 62.1165 34.898L68.233 20.8241C69.7872 20.72 71.1404 19.7582 71.7215 18.2979L73.2764 14.4192C73.4565 13.9296 73.5487 13.4371 73.5487 12.9505C73.5487 11.2814 72.5474 9.8043 71.0004 9.19026V9.19026ZM42.3672 16.3259L46.1077 17.9035L47.0605 15.6449L43.3452 14.0769L44.3727 11.7176L65.7912 20.2897L64.599 23.0343L49.3377 16.6114L48.388 18.8719L63.6217 25.2822L62.4181 28.0508L47.7919 21.8978C47.7003 19.9515 46.1006 18.3925 44.1322 18.3925H41.4677L42.3672 16.3259ZM29.4472 48.6044C30.8178 46.5714 33.0998 45.3577 35.5523 45.3577C38.0049 45.3577 40.2875 46.5714 41.6574 48.6044C42.475 49.8145 42.9065 51.2347 42.9065 52.7118C42.9065 54.1888 42.475 55.6096 41.6574 56.8192C40.2875 58.8528 38.0049 60.0659 35.5523 60.0659C31.4964 60.0659 28.1982 56.7677 28.1982 52.7118C28.1982 51.2347 28.6297 49.8145 29.4472 48.6044V48.6044ZM31.8753 42.9063C30.4401 42.9063 29.1701 42.1013 28.5561 40.7942C28.5034 40.6853 28.4789 40.568 28.437 40.4549H42.6784C42.1745 41.8853 40.8279 42.9063 39.2306 42.9063H31.8753ZM18.8757 40.2071L23.5947 38.2256C24.01 39.1915 24.8347 39.9306 25.8438 40.2592C25.8671 40.3927 25.8893 40.5273 25.921 40.6584L20.1331 43.099L18.8757 40.2071ZM44.1322 20.8439C44.8078 20.8439 45.3578 21.3945 45.3578 22.0696V28.198H34.3266C32.2996 28.198 30.6496 29.848 30.6496 31.8751C30.6496 32.8692 31.038 33.7932 31.7209 34.4587C32.4085 35.1637 33.3326 35.5521 34.3266 35.5521H45.3578V36.7778C45.3578 37.4535 44.8078 38.0035 44.1322 38.0035H26.9725C26.2974 38.0035 25.7468 37.4535 25.7468 36.7778V30.5758C25.7468 30.0024 25.8779 29.4411 26.1317 28.9419L29.1582 22.8775C29.7806 21.6417 31.0739 20.8439 32.4516 20.8439H44.1322ZM49.3551 46.5833H43.1907C42.6886 45.9573 42.1183 45.4031 41.4911 44.925C43.171 44.263 44.4655 42.8817 45.0245 41.188L49.1169 42.9099C49.0642 43.3132 49.0349 43.719 49.0349 44.132C49.0349 44.9704 49.1504 45.788 49.3551 46.5833V46.5833ZM45.3578 33.1008H34.3266C33.9993 33.1008 33.6976 32.9757 33.4541 32.7261C33.226 32.5041 33.101 32.2024 33.101 31.8751C33.101 31.2 33.6516 30.6494 34.3266 30.6494H45.3578V33.1008ZM23.9436 27.8389C23.6216 28.4727 23.4157 29.1723 23.3361 29.8923L15.7719 33.069L14.5684 30.3005L24.8826 25.9573L23.9436 27.8389ZM23.2955 32.5675V35.6946L17.8989 37.961L16.7493 35.3169L23.2955 32.5675ZM44.6199 49.0347H50.3671C50.9297 50.0019 51.6455 50.8637 52.4941 51.5807L50.6442 56.3889H44.6199C45.0909 55.2284 45.3578 53.9901 45.3578 52.7118C45.3578 51.4334 45.0909 50.1958 44.6199 49.0347ZM49.7483 40.5165L46.8104 39.2807C47.4256 38.6224 47.8092 37.7462 47.8092 36.7778V36.2841L51.3893 37.7941C50.6981 38.6056 50.1415 39.5225 49.7483 40.5165ZM53.4326 35.995L47.8092 33.6232V30.4974L57.2215 34.4587C55.8546 34.6831 54.5822 35.2224 53.4326 35.995ZM60.2379 33.069L47.8092 27.8377V24.5652L61.4414 30.3017L60.2379 33.069ZM32.4516 18.3925C30.1558 18.3925 28.0031 19.7199 26.9653 21.7829L26.5632 22.5896L13.5905 28.0508L12.3869 25.2834L33.6414 16.3259L34.5409 18.3925H32.4516ZM6.56252 17.3841L5.03041 13.5658C4.95201 13.3551 4.91012 13.142 4.91012 12.9505C4.91012 12.291 5.30512 11.7087 5.91796 11.4651L28.1222 2.57884C29.0612 2.23053 29.9093 2.6758 30.2229 3.46759L31.755 7.2853C31.8334 7.49596 31.8753 7.70962 31.8753 7.90053C31.8753 8.3458 31.6963 8.75995 31.363 9.07116C31.2283 9.19984 31.0506 9.31295 30.8704 9.38596L27.7326 10.6362L28.6393 12.9128L31.6377 11.7188L32.6695 14.0918L11.409 23.0367L10.2162 20.2927L26.2017 13.8931L25.2908 11.6183L8.64823 18.2788C8.55187 18.3165 8.44774 18.3446 8.40106 18.356C7.62902 18.4625 6.8492 18.1058 6.56252 17.3841ZM21.1104 45.3481L26.9701 42.877C27.6518 43.8046 28.5657 44.506 29.619 44.9202C28.99 45.3995 28.4178 45.9549 27.9139 46.5833H21.6472L21.1104 45.3481ZM52.9705 73.5485H18.1503L14.8443 58.681C14.7821 58.4039 14.7509 58.1268 14.7509 57.8354C14.7509 55.6868 16.5003 53.9375 18.6488 53.9375C20.23 53.9375 21.6418 54.8777 22.2487 56.3338L27.3807 68.6457H34.5523C35.0598 70.0689 36.4082 71.0971 38.0037 71.0971C40.0308 71.0971 41.6808 69.4477 41.6808 67.4201C41.6808 67.268 41.6539 67.1226 41.6353 66.9754L45.9061 64.84L44.809 62.6472L40.5485 64.7778C39.8877 64.1404 38.993 63.743 38.0037 63.743C36.4082 63.743 35.0598 64.7712 34.5523 66.1944H29.0145L24.5128 55.39C23.5247 53.0182 21.2241 51.4861 18.65 51.4861H15.9413C15.6139 51.4861 15.3123 51.361 15.0687 51.1114C14.8407 50.8894 14.7156 50.5878 14.7156 50.2604C14.7156 49.5853 15.2662 49.0347 15.9413 49.0347H26.4848C26.0143 50.1958 25.7468 51.4334 25.7468 52.7118C25.7468 58.1185 30.1457 62.5173 35.5523 62.5173C38.5453 62.5173 41.3379 61.1498 43.1907 58.8402H52.3284L58.218 43.5239C58.3634 43.1493 58.7141 42.9063 59.1103 42.9063C59.637 42.9063 60.0661 43.3354 60.0661 43.8746C60.0661 43.9189 60.0613 43.9949 60.0392 44.0907L52.9705 73.5485ZM36.778 67.4201C36.778 66.745 37.3286 66.1944 38.0037 66.1944C38.6794 66.1944 39.2294 66.745 39.2294 67.4201C39.2294 68.0957 38.6794 68.6457 38.0037 68.6457C37.3286 68.6457 36.778 68.0957 36.778 67.4201ZM66.1946 44.132C66.1946 47.5014 63.9526 50.3316 60.8555 51.1934L62.4253 44.6502C62.487 44.3833 62.5175 44.1224 62.5175 43.8626C62.5175 41.9834 60.989 40.4549 59.1103 40.4549C57.6979 40.4549 56.4519 41.3095 55.9306 42.6382L53.4439 49.1071C52.9412 48.5667 52.5109 47.9587 52.1901 47.286C51.7227 46.2967 51.4863 45.235 51.4863 44.132C51.4863 43.5508 51.5551 42.9883 51.6982 42.4042C52.0806 40.793 53.0064 39.3519 54.3177 38.3405C55.611 37.3183 57.1749 36.7778 58.8404 36.7778C59.3396 36.7778 59.7902 36.8221 60.2403 36.9155C63.6905 37.5768 66.1946 40.6129 66.1946 44.132V44.132ZM70.9896 13.5364L69.4437 17.3888C69.2013 17.9981 68.619 18.3925 67.9595 18.3925C67.8446 18.3925 67.7207 18.3716 67.6716 18.3668C67.5603 18.3446 67.4556 18.3153 67.3736 18.2848L45.146 9.38896C44.9581 9.31295 44.7803 9.19984 44.6445 9.07116L44.6385 9.06518C44.3111 8.75995 44.1322 8.3458 44.1322 7.90053C44.1322 7.70962 44.1741 7.49596 44.2399 7.31462L45.7858 3.4628C46.0281 2.85355 46.6105 2.45855 47.27 2.45855C47.4609 2.45855 47.6746 2.50044 47.8571 2.56627L70.0937 11.4663C70.7029 11.7087 71.0973 12.291 71.0973 12.9505C71.0973 13.142 71.0554 13.3551 70.9896 13.5364Z" fill="white"/>
<path d="M38.0033 52.7118C38.0033 53.0697 37.9225 53.4145 37.7544 53.7676L39.9694 54.8191C40.2919 54.1398 40.4547 53.4312 40.4547 52.7118C40.4547 50.0079 38.2559 47.8091 35.552 47.8091C34.8326 47.8091 34.124 47.9725 33.4453 48.2944L34.4968 50.5094C36.1834 49.7063 38.0033 51.002 38.0033 52.7118Z" fill="white"/>
<path d="M35.5522 57.6149C36.2715 57.6149 36.9801 57.4521 37.6594 57.1295L36.6073 54.9145C34.9208 55.7165 33.1008 54.4208 33.1008 52.7121C33.1008 52.3542 33.1816 52.0101 33.3498 51.657L31.1348 50.6055C30.8122 51.2841 30.6494 51.9927 30.6494 52.7121C30.6494 55.4161 32.8482 57.6149 35.5522 57.6149Z" fill="white"/>
<path d="M40.4548 23.2954H42.9063V25.7468H40.4548V23.2954Z" fill="white"/>
<path d="M35.5525 23.2954H38.0039V25.7468H35.5525V23.2954Z" fill="white"/>
<path d="M30.6494 23.2954H33.1008V25.7468H30.6494V23.2954Z" fill="white"/>
</g>
<defs>
<clipPath id="clip0_1031_51">
<rect width="76" height="76" fill="white"/>
</clipPath>
</defs>
</svg>
