<svg width="76" height="76" viewBox="0 0 76 76" fill="none" xmlns="http://www.w3.org/2000/svg">
<g clip-path="url(#clip0_1083_250)">
<path d="M72.1998 0H31.6665C31.4742 0.00337863 31.2852 0.0510578 31.1142 0.139333C21.0921 1.10847 13.2714 9.23675 12.6893 19.2888C12.5768 21.7711 12.9203 24.253 13.7026 26.6114C6.16084 26.8804 0.204053 33.1049 0.266507 40.6512C0.328962 48.1975 6.38796 54.3225 13.9332 54.4667H63.3332C66.1314 54.4667 68.3998 56.7351 68.3998 59.5333C68.3998 62.3316 66.1314 64.6 63.3332 64.6H36.7332C36.7332 63.2009 35.599 62.0667 34.1998 62.0667H24.0665C22.6674 62.0667 21.5332 63.2009 21.5332 64.6H18.4552C17.9422 64.5704 17.5045 64.2183 17.3658 63.7235C16.4508 61.2153 14.0697 59.543 11.3998 59.5333H6.33317C2.8371 59.5375 0.00402544 62.3706 -0.000162311 65.8667V72.0607C-0.024437 73.9515 1.30957 75.5881 3.1665 75.9455C3.37585 75.9804 3.58762 75.9986 3.79984 76C4.80766 76 5.77421 75.5996 6.48684 74.887C7.19948 74.1744 7.59984 73.2078 7.59984 72.2V67.1333L10.2738 67.1789C10.9005 70.1006 13.4784 72.1908 16.4665 72.2H21.5332C21.5332 73.5991 22.6674 74.7333 24.0665 74.7333H34.1998C35.599 74.7333 36.7332 73.5991 36.7332 72.2H63.3332C70.3288 72.2 75.9998 66.5289 75.9998 59.5333C75.9998 52.5377 70.3288 46.8667 63.3332 46.8667H13.9332C10.4354 46.8667 7.59984 44.0311 7.59984 40.5333C7.59984 37.0355 10.4354 34.2 13.9332 34.2H18.2196C18.236 34.2177 18.25 34.2367 18.2664 34.2545C22.0795 38.2816 27.3873 40.5539 32.9332 40.5333C41.7758 40.5333 47.9748 36.7979 52.075 34.3267L52.5817 34.0189C57.9118 30.8205 70.4683 23.1078 74.1885 20.8202C75.3174 20.133 76.0044 18.9054 75.9998 17.5839V3.8C75.9998 1.70132 74.2985 0 72.1998 0V0ZM16.4665 69.6667C14.6764 69.6617 13.1313 68.4108 12.7539 66.6609C12.5275 65.4681 11.4866 64.6036 10.2725 64.6H7.59984C6.20072 64.6 5.0665 65.7342 5.0665 67.1333V72.2C5.06619 72.5754 4.89934 72.9314 4.61098 73.1718C4.32263 73.4122 3.94248 73.5123 3.5731 73.4451C2.94249 73.2879 2.50847 72.7101 2.53317 72.0607V65.8667C2.53317 63.768 4.23449 62.0667 6.33317 62.0667H11.3998C13.0018 62.0722 14.4308 63.0751 14.9807 64.5797C15.4716 66.0878 16.8693 67.1151 18.4552 67.1333H21.5332V69.6667H16.4665ZM43.0665 2.53333V3.8C43.0665 4.49956 42.4994 5.06667 41.7998 5.06667H34.1998C33.5003 5.06667 32.9332 4.49956 32.9332 3.8V2.55867C33.113 2.55867 33.2891 2.53333 33.4702 2.53333H43.0665ZM24.0665 72.2V64.6H34.1998V72.2H24.0665ZM13.9332 31.6667C9.03625 31.6667 5.0665 35.6364 5.0665 40.5333C5.0665 45.4303 9.03625 49.4 13.9332 49.4H63.3332C68.9297 49.4 73.4665 53.9369 73.4665 59.5333C73.4665 65.1298 68.9297 69.6667 63.3332 69.6667H36.7332V67.1333H63.3332C67.5305 67.1333 70.9332 63.7307 70.9332 59.5333C70.9332 55.336 67.5305 51.9333 63.3332 51.9333H13.9332C7.63713 51.9333 2.53317 46.8294 2.53317 40.5333C2.53317 34.2373 7.63713 29.1333 13.9332 29.1333H14.6995C15.1363 30.0136 15.6375 30.8604 16.1992 31.6667H13.9332ZM73.4665 17.5839C73.469 18.0232 73.2412 18.4318 72.8661 18.6605C69.1472 20.9481 56.6021 28.6545 51.2808 31.8478L50.7678 32.1556C46.907 34.4837 41.0715 38 32.9332 38C28.0809 38.0002 23.4405 36.012 20.0934 32.4988C16.7464 28.9857 14.9851 24.2545 15.2201 19.4079C15.7139 10.9776 22.0479 4.04685 30.3998 2.79807V3.8C30.3998 5.89868 32.1012 7.6 34.1998 7.6H41.7998C43.8985 7.6 45.5998 5.89868 45.5998 3.8V2.53333H72.1998C72.8994 2.53333 73.4665 3.10044 73.4665 3.8V17.5839Z" fill="#5D62B5"/>
<path d="M67.1334 5.06641H50.6667C48.568 5.06641 46.8667 6.76772 46.8667 8.86641V17.9497C46.8635 18.9585 47.2645 19.9265 47.9801 20.6375L50.972 23.6294C51.6885 24.3415 52.6585 24.7402 53.6687 24.7377C54.2938 24.7387 54.9093 24.5842 55.4598 24.2881L68.9346 17.0326C70.1658 16.3698 70.9335 15.0844 70.9333 13.6861V8.86641C70.9333 6.76772 69.232 5.06641 67.1334 5.06641V5.06641ZM68.4 13.6861C68.4002 14.1523 68.1443 14.581 67.7338 14.802L54.2577 22.0575C53.7652 22.3195 53.1596 22.2307 52.763 21.8383L49.7712 18.8465C49.5333 18.6087 49.3998 18.286 49.4 17.9497V8.86641C49.4 8.16685 49.9672 7.59974 50.6667 7.59974H67.1334C67.8329 7.59974 68.4 8.16685 68.4 8.86641V13.6861Z" fill="#5D62B5"/>
</g>
<defs>
<clipPath id="clip0_1083_250">
<rect width="76" height="76" fill="white"/>
</clipPath>
</defs>
</svg>
